<svg xmlns="http://www.w3.org/2000/svg" x="0px" y="0px"
width="40" height="40"
viewBox="0 0 40 40"
style=" fill:#000000;"><path fill="#bae0bd" d="M9.5,38.5V27.577l-0.728,0.372C8.059,28.315,7.294,28.5,6.5,28.5c-2.757,0-5-2.243-5-5s2.243-5,5-5 c0.794,0,1.559,0.185,2.272,0.551L9.5,19.423V9.5h10.924l-0.373-0.728C19.686,8.06,19.5,7.295,19.5,6.5c0-2.757,2.243-5,5-5 s5,2.243,5,5c0,0.795-0.186,1.56-0.551,2.272L28.576,9.5H38.5v8.345c-0.642-0.229-1.312-0.345-2-0.345c-3.309,0-6,2.691-6,6 s2.691,6,6,6c0.688,0,1.358-0.116,2-0.345V38.5H9.5z"></path><path fill="#5e9c76" d="M24.5,2C26.981,2,29,4.019,29,6.5c0,0.714-0.167,1.402-0.495,2.044L27.76,10h1.635H38v7.175 C37.512,17.059,37.011,17,36.5,17c-3.584,0-6.5,2.916-6.5,6.5s2.916,6.5,6.5,6.5c0.511,0,1.012-0.059,1.5-0.175V38H10v-9.605V26.76 l-1.456,0.745C7.902,27.833,7.214,28,6.5,28C4.019,28,2,25.981,2,23.5S4.019,19,6.5,19c0.714,0,1.402,0.167,2.044,0.495L10,20.24 v-1.635V10h9.605h1.635l-0.745-1.456C20.167,7.902,20,7.214,20,6.5C20,4.019,22.019,2,24.5,2 M24.5,1C21.462,1,19,3.462,19,6.5 c0,0.901,0.221,1.749,0.605,2.5H9v9.605C8.249,18.221,7.401,18,6.5,18C3.462,18,1,20.462,1,23.5C1,26.538,3.462,29,6.5,29 c0.901,0,1.749-0.221,2.5-0.605V39h30V28.395C38.249,28.779,37.401,29,36.5,29c-3.038,0-5.5-2.462-5.5-5.5 c0-3.038,2.462-5.5,5.5-5.5c0.901,0,1.749,0.221,2.5,0.605V9h-9.605C29.779,8.249,30,7.401,30,6.5C30,3.462,27.538,1,24.5,1L24.5,1 z"></path></svg>