<svg xmlns="http://www.w3.org/2000/svg" x="0px" y="0px"
width="180" height="180"
viewBox="0 0 100 100"
style=" fill:#000000;"><path fill="#f1bc19" d="M77 12A1 1 0 1 0 77 14A1 1 0 1 0 77 12Z"></path><path fill="#e4e4f9" d="M50 13A37 37 0 1 0 50 87A37 37 0 1 0 50 13Z"></path><path fill="#f1bc19" d="M83 11A4 4 0 1 0 83 19A4 4 0 1 0 83 11Z"></path><path fill="#8889b9" d="M87 22A2 2 0 1 0 87 26A2 2 0 1 0 87 22Z"></path><path fill="#fbcd59" d="M81 74A2 2 0 1 0 81 78 2 2 0 1 0 81 74zM15 59A4 4 0 1 0 15 67 4 4 0 1 0 15 59z"></path><path fill="#8889b9" d="M25 85A2 2 0 1 0 25 89A2 2 0 1 0 25 85Z"></path><path fill="#fff" d="M18.5 49A2.5 2.5 0 1 0 18.5 54 2.5 2.5 0 1 0 18.5 49zM79.5 32A1.5 1.5 0 1 0 79.5 35 1.5 1.5 0 1 0 79.5 32z"></path><path fill="#fefdef" d="M37.296,73.3c-2.535,0-4.596-2.065-4.596-4.605V31.306c0-2.54,2.062-4.605,4.596-4.605h19.132 L68.3,38.593l0,30.102c0,2.54-2.062,4.605-4.596,4.605H37.296z"></path><path fill="#472b29" d="M56.138,27.4l4.662,4.67l6.799,6.812v29.813c0,2.154-1.748,3.906-3.896,3.906H37.296 c-2.149,0-3.896-1.752-3.896-3.906V31.306c0-2.154,1.748-3.906,3.896-3.906h0.769h1.718h5.523H56.138 M56.719,26H45.307h-5.523 h-1.718h-0.769C34.383,26,32,28.388,32,31.306v37.389C32,71.613,34.384,74,37.296,74h26.406c2.913,0,5.296-2.388,5.296-5.306 V38.303H69C64.224,33.518,61.495,30.785,56.719,26L56.719,26z"></path><path fill="#fef6aa" d="M56.5,27v6.483c0,2.759,2.214,5.017,4.921,5.017H68"></path><path fill="#472b29" d="M68 39h-6.579C58.432 39 56 36.525 56 33.483V27h1v6.483C57 35.974 58.983 38 61.421 38H68V39zM63 71H38c-1.654 0-3-1.346-3-3V32c0-1.654 1.346-3 3-3h2c.276 0 .5.224.5.5S40.276 30 40 30h-2c-1.103 0-2 .897-2 2v36c0 1.103.897 2 2 2h25c1.103 0 2-.897 2-2V52.917c0-.276.224-.5.5-.5s.5.224.5.5V68C66 69.654 64.654 71 63 71zM65.5 51c-.276 0-.5-.224-.5-.5v-4c0-.276.224-.5.5-.5s.5.224.5.5v4C66 50.776 65.776 51 65.5 51zM65.5 44.75c-.276 0-.5-.224-.5-.5v-2.583c0-.276.224-.5.5-.5s.5.224.5.5v2.583C66 44.526 65.776 44.75 65.5 44.75z"></path><path fill="#472b29" d="M49.5,43.75h-10c-0.138,0-0.25-0.112-0.25-0.25s0.112-0.25,0.25-0.25h10 c0.138,0,0.25,0.112,0.25,0.25S49.638,43.75,49.5,43.75z"></path><g><path fill="#472b29" d="M49.5,47.75h-10c-0.138,0-0.25-0.112-0.25-0.25s0.112-0.25,0.25-0.25h10 c0.138,0,0.25,0.112,0.25,0.25S49.638,47.75,49.5,47.75z"></path></g><g><path fill="#472b29" d="M49.5,51.75h-10c-0.138,0-0.25-0.112-0.25-0.25s0.112-0.25,0.25-0.25h10 c0.138,0,0.25,0.112,0.25,0.25S49.638,51.75,49.5,51.75z"></path></g><g><path fill="#472b29" d="M46.5,55.75h-7c-0.138,0-0.25-0.112-0.25-0.25s0.112-0.25,0.25-0.25h7c0.138,0,0.25,0.112,0.25,0.25 S46.638,55.75,46.5,55.75z"></path></g><g><path fill="#472b29" d="M49.5,59.75h-10c-0.138,0-0.25-0.112-0.25-0.25s0.112-0.25,0.25-0.25h10 c0.138,0,0.25,0.112,0.25,0.25S49.638,59.75,49.5,59.75z"></path></g><g><path fill="#472b29" d="M51.5,63.75h-12c-0.138,0-0.25-0.112-0.25-0.25s0.112-0.25,0.25-0.25h12 c0.138,0,0.25,0.112,0.25,0.25S51.638,63.75,51.5,63.75z"></path></g><g><path fill="#472b29" d="M61.5,63.75h-8c-0.138,0-0.25-0.112-0.25-0.25s0.112-0.25,0.25-0.25h8c0.138,0,0.25,0.112,0.25,0.25 S61.638,63.75,61.5,63.75z"></path></g><g><path fill="#472b29" d="M61.5,55.75h-13c-0.138,0-0.25-0.112-0.25-0.25s0.112-0.25,0.25-0.25h13 c0.138,0,0.25,0.112,0.25,0.25S61.638,55.75,61.5,55.75z"></path></g><g><path fill="#472b29" d="M61.5,59.75h-4c-0.138,0-0.25-0.112-0.25-0.25s0.112-0.25,0.25-0.25h4c0.138,0,0.25,0.112,0.25,0.25 S61.638,59.75,61.5,59.75z"></path></g><g><path fill="#472b29" d="M55.5,59.75h-4c-0.138,0-0.25-0.112-0.25-0.25s0.112-0.25,0.25-0.25h4c0.138,0,0.25,0.112,0.25,0.25 S55.638,59.75,55.5,59.75z"></path></g><g><path fill="#fef6aa" d="M52.5 53L52.5 43.5 61.5 43.5 61.5 52.5 56 52.5"></path><path fill="#472b29" d="M52.75 53L52.25 53 52.25 43.25 61.75 43.25 61.75 52.75 56 52.75 56 52.25 61.25 52.25 61.25 43.75 52.75 43.75z"></path></g></svg>