<svg xmlns="http://www.w3.org/2000/svg" x="0px" y="0px"
width="180" height="180"
viewBox="0 0 100 100"
style=" fill:#000000;"><path fill="#ee3e54" d="M13 27A2 2 0 1 0 13 31A2 2 0 1 0 13 27Z"></path><path fill="#f1bc19" d="M77 12A1 1 0 1 0 77 14A1 1 0 1 0 77 12Z"></path><path fill="#fce0a2" d="M50 13A37 37 0 1 0 50 87A37 37 0 1 0 50 13Z"></path><path fill="#f1bc19" d="M83 11A4 4 0 1 0 83 19A4 4 0 1 0 83 11Z"></path><path fill="#ee3e54" d="M87 22A2 2 0 1 0 87 26A2 2 0 1 0 87 22Z"></path><path fill="#fbcd59" d="M81 74A2 2 0 1 0 81 78 2 2 0 1 0 81 74zM15 59A4 4 0 1 0 15 67 4 4 0 1 0 15 59z"></path><path fill="#ee3e54" d="M25 85A2 2 0 1 0 25 89A2 2 0 1 0 25 85Z"></path><path fill="#fff" d="M18.5 51A2.5 2.5 0 1 0 18.5 56A2.5 2.5 0 1 0 18.5 51Z"></path><path fill="#f1bc19" d="M21 66A1 1 0 1 0 21 68A1 1 0 1 0 21 66Z"></path><path fill="#fff" d="M80 33A1 1 0 1 0 80 35A1 1 0 1 0 80 33Z"></path><path fill="#78a0cf" d="M50 26.042A23.958 23.958 0 1 0 50 73.958A23.958 23.958 0 1 0 50 26.042Z"></path><path fill="#fdfcee" d="M50 30.5A19.5 19.5 0 1 0 50 69.5A19.5 19.5 0 1 0 50 30.5Z"></path><path fill="#472b29" d="M50,26.4c13.013,0,23.6,10.587,23.6,23.6S63.013,73.6,50,73.6S26.4,63.013,26.4,50 S36.987,26.4,50,26.4 M50,25c-13.807,0-25,11.193-25,25s11.193,25,25,25s25-11.193,25-25S63.807,25,50,25L50,25z"></path><path fill="#472b29" d="M50,70c-11.028,0-20-8.972-20-20c0-1.16,0.11-2.333,0.338-3.589c0.05-0.272,0.313-0.453,0.581-0.403 c0.272,0.049,0.452,0.31,0.403,0.582C31.105,47.785,31,48.901,31,50c0,10.477,8.523,19,19,19s19-8.523,19-19s-8.523-19-19-19 c-6.011,0-11.728,2.914-15.294,7.795c-0.163,0.225-0.476,0.271-0.698,0.109c-0.223-0.163-0.271-0.476-0.108-0.699 C37.652,33.067,43.672,30,50,30c11.028,0,20,8.972,20,20S61.028,70,50,70z"></path><path fill="#472b29" d="M31.324,45c-0.047,0-0.095-0.006-0.142-0.021c-0.265-0.078-0.416-0.356-0.338-0.621 c0.188-0.636,0.424-1.288,0.743-2.051c0.106-0.255,0.4-0.375,0.653-0.269c0.255,0.106,0.375,0.399,0.269,0.654 c-0.305,0.729-0.529,1.348-0.706,1.949C31.739,44.859,31.54,45,31.324,45z"></path><path fill="#f1bc19" d="M50,38.25c3.262,0,6.297,1.315,8.546,3.702c0.284,0.301,0.269,0.777-0.032,1.06 c-0.14,0.132-0.322,0.204-0.514,0.204c-0.209,0-0.403-0.084-0.546-0.236c-1.962-2.083-4.609-3.23-7.454-3.23 c-5.496,0-9.989,4.306-10.228,9.803l-0.028,0.642l0.454-0.454l1.271-1.271c0.142-0.142,0.33-0.22,0.53-0.22 c0.2,0,0.389,0.078,0.53,0.22c0.292,0.292,0.292,0.768,0,1.06l-3,3c-0.142,0.142-0.33,0.22-0.53,0.22s-0.389-0.078-0.53-0.22l-3-3 c-0.292-0.292-0.292-0.768,0-1.06c0.142-0.142,0.33-0.22,0.53-0.22c0.2,0,0.389,0.078,0.53,0.22l1.313,1.313l0.408,0.408 l0.019-0.576C38.478,43.242,43.631,38.25,50,38.25"></path><path fill="#472b29" d="M50,38.5c3.193,0,6.163,1.287,8.364,3.623c0.189,0.201,0.179,0.518-0.021,0.707 c-0.093,0.088-0.215,0.136-0.343,0.136c-0.139,0-0.268-0.056-0.364-0.157C55.626,40.675,52.914,39.5,50,39.5 c-5.631,0-10.233,4.411-10.477,10.042l-0.056,1.284l0.909-0.909l1.271-1.271C41.741,48.552,41.867,48.5,42,48.5 s0.259,0.052,0.353,0.147S42.5,48.867,42.5,49s-0.052,0.259-0.147,0.353l-3,3C39.259,52.448,39.133,52.5,39,52.5 s-0.259-0.052-0.354-0.147l-3-3C35.552,49.259,35.5,49.133,35.5,49s0.052-0.259,0.146-0.353C35.741,48.552,35.867,48.5,36,48.5 s0.259,0.052,0.353,0.147l1.313,1.313l0.816,0.816l0.038-1.153C38.724,43.385,43.766,38.5,50,38.5 M50,38 c-6.484,0-11.77,5.172-11.98,11.606l-1.313-1.313C36.512,48.098,36.256,48,36,48s-0.512,0.098-0.707,0.293 c-0.391,0.391-0.391,1.023,0,1.414l3,3C38.488,52.902,38.744,53,39,53s0.512-0.098,0.707-0.293l3-3c0.391-0.391,0.391-1.023,0-1.414 C42.512,48.098,42.256,48,42,48s-0.512,0.098-0.707,0.293l-1.271,1.271C40.253,44.253,44.633,40,50,40 c2.775,0,5.357,1.119,7.272,3.151c0.197,0.209,0.462,0.314,0.728,0.314c0.246,0,0.493-0.09,0.686-0.272 c0.402-0.379,0.421-1.012,0.042-1.414C56.431,39.342,53.332,38,50,38L50,38z"></path><path fill="#f1bc19" d="M50,61.75c-3.262,0-6.297-1.315-8.546-3.702c-0.284-0.301-0.269-0.777,0.032-1.06 c0.14-0.132,0.322-0.204,0.514-0.204c0.209,0,0.403,0.084,0.546,0.236c1.962,2.083,4.609,3.23,7.454,3.23 c5.496,0,9.989-4.306,10.228-9.803l0.028-0.642l-0.454,0.454L58.53,51.53c-0.142,0.142-0.33,0.22-0.53,0.22 c-0.2,0-0.389-0.078-0.53-0.22c-0.292-0.292-0.292-0.768,0-1.06l3-3c0.142-0.142,0.33-0.22,0.53-0.22s0.389,0.078,0.53,0.22l3,3 c0.292,0.292,0.292,0.768,0,1.06c-0.142,0.142-0.33,0.22-0.53,0.22c-0.2,0-0.389-0.078-0.53-0.22l-1.313-1.313l-0.408-0.408 l-0.019,0.576C61.522,56.758,56.369,61.75,50,61.75"></path><path fill="#472b29" d="M61,47.5c0.133,0,0.259,0.052,0.354,0.147l3,3C64.448,50.741,64.5,50.867,64.5,51 s-0.052,0.259-0.146,0.353C64.259,51.448,64.133,51.5,64,51.5s-0.259-0.052-0.353-0.147l-1.313-1.313l-0.816-0.816l-0.038,1.153 C61.276,56.615,56.234,61.5,50,61.5c-3.193,0-6.163-1.287-8.364-3.623c-0.189-0.201-0.179-0.518,0.021-0.707 c0.093-0.088,0.215-0.136,0.343-0.136c0.139,0,0.268,0.056,0.364,0.157C44.374,59.325,47.086,60.5,50,60.5 c5.631,0,10.233-4.411,10.477-10.042l0.056-1.284l-0.909,0.909l-1.271,1.271C58.259,51.448,58.133,51.5,58,51.5 s-0.259-0.052-0.353-0.147C57.552,51.259,57.5,51.133,57.5,51s0.052-0.259,0.147-0.353l3-3C60.741,47.552,60.867,47.5,61,47.5 M61,47c-0.256,0-0.512,0.098-0.707,0.293l-3,3c-0.391,0.391-0.391,1.023,0,1.414C57.488,51.902,57.744,52,58,52 s0.512-0.098,0.707-0.293l1.271-1.271C59.747,55.747,55.367,60,50,60c-2.775,0-5.357-1.119-7.272-3.151 c-0.197-0.209-0.462-0.314-0.728-0.314c-0.246,0-0.493,0.09-0.686,0.272c-0.402,0.379-0.421,1.012-0.042,1.414 C43.569,60.658,46.668,62,50,62c6.484,0,11.77-5.172,11.98-11.606l1.313,1.313C63.488,51.902,63.744,52,64,52 c0.256,0,0.512-0.098,0.707-0.293c0.391-0.391,0.391-1.023,0-1.414l-3-3C61.512,47.098,61.256,47,61,47L61,47z"></path></svg>