<svg xmlns="http://www.w3.org/2000/svg" x="0px" y="0px"
width="180" height="180"
viewBox="0 0 100 100"
style="stroke:none;fill-rule:nonzero;fill:rgb(100%,100%,100%);fill-opacity:1;"><path fill="#f1bc19" d="M78 13A1 1 0 1 0 78 15A1 1 0 1 0 78 13Z"></path><path fill="#f9dbd2" d="M50 12A38 38 0 1 0 50 88A38 38 0 1 0 50 12Z"></path><path fill="#f1bc19" d="M84 12A4 4 0 1 0 84 20A4 4 0 1 0 84 12Z"></path><path fill="#ee3e54" d="M14 24A2 2 0 1 0 14 28A2 2 0 1 0 14 24Z"></path><path fill="#fbcd59" d="M78 75A2 2 0 1 0 78 79 2 2 0 1 0 78 75zM17 74A4 4 0 1 0 17 82 4 4 0 1 0 17 74z"></path><path fill="#ee3e54" d="M24 81A2 2 0 1 0 24 85A2 2 0 1 0 24 81Z"></path><path fill="#fff" d="M66.483 76.03399999999999A2.483 2.483 0 1 0 66.483 81 2.483 2.483 0 1 0 66.483 76.03399999999999zM16 47A1 1 0 1 0 16 49 1 1 0 1 0 16 47z"></path><path fill="#f1bc19" d="M86 30A1 1 0 1 0 86 32A1 1 0 1 0 86 30Z"></path><path fill="#fff" d="M80 64A2 2 0 1 0 80 68A2 2 0 1 0 80 64Z"></path><g><path fill="#fde751" d="M50,25.625c-13.393,0-24.25,10.857-24.25,24.25c0,13.393,10.857,24.25,24.25,24.25 s24.25-10.857,24.25-24.25C74.25,36.482,63.393,25.625,50,25.625z M50,69.875c-11.046,0-20-8.954-20-20s8.954-20,20-20 s20,8.954,20,20S61.046,69.875,50,69.875z"></path></g><g><path fill="#472b29" d="M50,74.825c-13.757,0-24.95-11.192-24.95-24.95S36.243,24.925,50,24.925 c13.758,0,24.95,11.192,24.95,24.95S63.758,74.825,50,74.825z M50,26.325c-12.985,0-23.55,10.564-23.55,23.55 S37.015,73.425,50,73.425s23.55-10.564,23.55-23.55S62.985,26.325,50,26.325z"></path></g><g><path fill="#472b29" d="M69.424,44.625c-0.214,0-0.412-0.138-0.478-0.353c-0.089-0.288-0.184-0.572-0.284-0.854 c-0.39-1.089-0.885-2.155-1.47-3.169c-0.139-0.239-0.057-0.545,0.183-0.683c0.239-0.14,0.543-0.058,0.683,0.183 c0.616,1.065,1.136,2.187,1.546,3.331c0.106,0.297,0.205,0.595,0.298,0.896c0.082,0.265-0.066,0.544-0.33,0.625 C69.522,44.618,69.473,44.625,69.424,44.625z"></path></g><g><path fill="#472b29" d="M50,70.75c-11.511,0-20.875-9.337-20.875-20.813S38.489,29.125,50,29.125 c5.975,0,11.674,2.56,15.636,7.023c0.3,0.337,0.588,0.685,0.865,1.041c0.17,0.218,0.131,0.531-0.088,0.701 c-0.217,0.169-0.532,0.131-0.701-0.088c-0.264-0.339-0.538-0.669-0.823-0.99c-3.773-4.25-9.199-6.688-14.889-6.688 c-10.959,0-19.875,8.888-19.875,19.813S39.041,69.75,50,69.75s19.875-8.888,19.875-19.813c0-0.992-0.074-1.992-0.222-2.973 c-0.041-0.273,0.146-0.527,0.42-0.568c0.271-0.034,0.527,0.146,0.568,0.42c0.155,1.029,0.233,2.079,0.233,3.121 C70.875,61.413,61.511,70.75,50,70.75z"></path></g></svg>