<svg xmlns="http://www.w3.org/2000/svg" x="0px" y="0px"
width="120" height="150"
viewBox="0 0 100 100"
style=" stroke:none;fill-rule:nonzero;fill:rgb(100%,100%,100%);fill-opacity:1;">
<path d="M 77.970703 14 A 1.0001 1.0001 0 0 0 77.757812 14.029297 L 33.757812 25.029297 A 1.0001 1.0001 0 0 0 33 26 L 33 66 A 1.0001 1.0001 0 0 0 33 66.001953 L 33 66.099609 C 30.126671 66.192919 26.888226 66.791212 23.535156 68.083984 C 19.481424 69.646398 16.100198 71.798212 13.855469 74.105469 C 12.733104 75.259097 11.888653 76.454156 11.412109 77.679688 C 10.935566 78.905218 10.840317 80.199771 11.310547 81.369141 A 1.0001 1.0001 0 0 0 11.310547 81.371094 C 12.251092 83.709394 14.958755 84.779144 18.201172 84.96875 C 21.443588 85.158356 25.413512 84.478455 29.466797 82.916016 C 33.068727 81.52753 36.137406 79.670222 38.351562 77.658203 C 40.56572 75.646086 42.003172 73.470975 42 71.257812 L 42 69 L 42 37.515625 L 67.605469 31.113281 A 0.50005 0.50005 0 0 0 67.498047 30.126953 A 0.50005 0.50005 0 0 0 67.363281 30.144531 L 42 36.484375 L 42 32.03125 L 70 25.03125 L 70 55 A 1.0001 1.0001 0 0 0 70 55.001953 L 70 55.099609 C 67.126671 55.192919 63.888226 55.791212 60.535156 57.083984 C 56.481424 58.646398 53.100198 60.798212 50.855469 63.105469 C 49.733104 64.259097 48.888653 65.454156 48.412109 66.679688 C 47.935566 67.905218 47.840317 69.199771 48.310547 70.369141 A 1.0001 1.0001 0 0 0 48.310547 70.371094 C 49.251092 72.709394 51.958755 73.779144 55.201172 73.96875 C 58.443588 74.158356 62.413512 73.478455 66.466797 71.916016 C 70.068727 70.52753 73.137407 68.670222 75.351562 66.658203 C 77.56572 64.646086 79.003172 62.470976 79 60.257812 L 79 58 L 79 15 A 1.0001 1.0001 0 0 0 77.970703 14 z M 77 16.28125 L 77 58 L 77 60.259766 A 1.0001 1.0001 0 0 0 77 60.261719 C 77.0018 61.537557 75.991657 63.375003 74.007812 65.177734 C 72.02397 66.980466 69.145116 68.741267 65.748047 70.050781 C 61.925332 71.524342 58.180943 72.140051 55.318359 71.972656 C 52.455776 71.805262 50.66547 70.864747 50.166016 69.623047 C 49.916245 69.001916 49.934356 68.28636 50.277344 67.404297 C 50.620331 66.522234 51.302303 65.514247 52.289062 64.5 C 54.262583 62.471507 57.430639 60.422805 61.253906 58.949219 C 64.77366 57.592182 68.224681 56.961341 70.986328 57.001953 A 1.0001 1.0001 0 0 0 72.001953 56.001953 L 72 55 L 72 23.75 A 1.0001 1.0001 0 0 0 70.757812 22.779297 L 40.757812 30.279297 A 1.0001 1.0001 0 0 0 40 31.25 L 40 69 L 40 71.259766 A 1.0001 1.0001 0 0 0 40 71.261719 C 40.0018 72.537557 38.991656 74.375003 37.007812 76.177734 C 35.023969 77.980466 32.145116 79.741267 28.748047 81.050781 C 24.925332 82.524342 21.180943 83.140051 18.318359 82.972656 C 15.455776 82.805262 13.66547 81.864747 13.166016 80.623047 C 12.916245 80.001916 12.934356 79.28636 13.277344 78.404297 C 13.620331 77.522234 14.302302 76.514247 15.289062 75.5 C 17.262584 73.471507 20.430639 71.422805 24.253906 69.949219 C 27.77366 68.592182 31.224681 67.961341 33.986328 68.001953 A 1.0001 1.0001 0 0 0 35.001953 67.001953 L 35 66 L 35 26.78125 L 77 16.28125 z M 73.142578 62.019531 A 0.50005 0.50005 0 0 0 73.091797 62.021484 A 0.50005 0.50005 0 0 0 72.753906 62.185547 C 71.351845 63.695828 68.733244 65.683897 64.669922 67.253906 C 63.124771 67.848725 61.694682 68.262547 60.400391 68.541016 A 0.50049626 0.50049626 0 0 0 60.611328 69.519531 C 61.957036 69.23 63.436448 68.800681 65.029297 68.1875 A 0.50005 0.50005 0 0 0 65.029297 68.185547 C 69.221974 66.565556 71.962343 64.508954 73.488281 62.865234 A 0.50005 0.50005 0 0 0 73.142578 62.019531 z M 53.496094 68.728516 A 0.50005 0.50005 0 0 0 53.382812 69.712891 C 53.692816 69.796941 54.052242 69.86739 54.460938 69.919922 A 0.5001385 0.5001385 0 1 0 54.587891 68.927734 C 54.218585 68.880264 53.902529 68.817997 53.644531 68.748047 A 0.50005 0.50005 0 0 0 53.496094 68.728516 z M 58.505859 68.867188 A 0.50005 0.50005 0 0 0 58.472656 68.871094 C 57.752121 68.962864 57.09095 69.009839 56.492188 69.021484 A 0.50007726 0.50007726 0 0 0 56.509766 70.021484 C 57.145002 70.009134 57.844144 69.959504 58.599609 69.863281 A 0.50005 0.50005 0 0 0 58.556641 68.867188 A 0.50005 0.50005 0 0 0 58.505859 68.867188 z M 33.490234 70.001953 C 33.150275 70.007153 32.801435 70.023168 32.447266 70.048828 A 0.50005 0.50005 0 1 0 32.519531 71.044922 C 32.855362 71.020582 33.183866 71.006803 33.503906 71.001953 A 0.50005 0.50005 0 1 0 33.490234 70.001953 z M 30.488281 70.291016 A 0.50005 0.50005 0 0 0 30.404297 70.298828 C 28.649061 70.596983 26.800115 71.109193 24.970703 71.8125 A 0.500187 0.500187 0 1 0 25.330078 72.746094 C 27.100666 72.065401 28.889501 71.571001 30.572266 71.285156 A 0.50005 0.50005 0 0 0 30.488281 70.291016 z M 32.488281 75.933594 A 0.50005 0.50005 0 0 0 32.21875 76.011719 C 31.625573 76.380741 30.974238 76.7492 30.261719 77.107422 A 0.50005 0.50005 0 1 0 30.710938 78 C 31.450419 77.628222 32.129223 77.246306 32.748047 76.861328 A 0.50005 0.50005 0 0 0 32.488281 75.933594 z M 28.439453 77.978516 A 0.50005 0.50005 0 0 0 28.261719 78.019531 C 28.067709 78.099301 27.871175 78.177703 27.671875 78.253906 A 0.50005 0.50005 0 0 0 27.669922 78.253906 C 27.554347 78.298356 27.439681 78.340367 27.326172 78.382812 A 0.50062513 0.50062513 0 1 0 27.677734 79.320312 C 27.794226 79.276753 27.910871 79.233052 28.029297 79.1875 C 28.237997 79.1077 28.440635 79.025589 28.640625 78.943359 A 0.50005 0.50005 0 0 0 28.439453 77.978516 z M 25.550781 79 A 0.50005 0.50005 0 0 0 25.417969 79.023438 C 21.978202 80.047505 19.26901 80.142748 17.603516 79.929688 A 0.50013807 0.50013807 0 0 0 17.476562 80.921875 C 19.313068 81.156813 22.142892 81.040401 25.703125 79.980469 A 0.50005 0.50005 0 0 0 25.550781 79 z"></path>
</svg>