<svg xmlns="http://www.w3.org/2000/svg" x="0px" y="0px"
width="120" height="150"
viewBox="0 0 24 24"
style="stroke:none;fill-rule:nonzero;fill:rgb(100%,100%,100%);fill-opacity:1;"><path d="M 2 3 L 2 18 C 2 19.64497 3.3550302 21 5 21 L 19 21 C 20.64497 21 22 19.64497 22 18 L 22 7 L 20 7 L 20 18 C 20 18.56503 19.56503 19 19 19 C 18.43497 19 18 18.56503 18 18 L 18 3 L 2 3 z M 4 5 L 16 5 L 16 18 C 16 18.388348 16.278986 18.657986 16.416016 19 L 5 19 C 4.4349698 19 4 18.56503 4 18 L 4 5 z M 6 7 L 6 10 L 14 10 L 14 7 L 6 7 z M 6 12 L 6 14 L 14 14 L 14 12 L 6 12 z M 6 16 L 6 18 L 14 18 L 14 16 L 6 16 z"></path></svg>