<svg xmlns="http://www.w3.org/2000/svg" x="0px" y="0px"
width="120" height="150"
viewBox="0 0 24 24"
style=" stroke:none;fill-rule:nonzero;fill:rgb(100%,100%,100%);fill-opacity:1;"><path d="M 16 2 L 16 3.203125 C 15.257598 3.384199 14.599699 3.6951502 14.125 4.1855469 L 13.169922 3.6347656 L 12.169922 5.3652344 L 13.177734 5.9472656 C 13.090179 6.2951157 13 6.6445314 13 7 C 13 7.3554686 13.09018 7.7048843 13.177734 8.0527344 L 12.169922 8.6347656 L 13.169922 10.365234 L 14.125 9.8144531 C 14.599699 10.30485 15.257598 10.615801 16 10.796875 L 16 12 L 18 12 L 18 10.796875 C 18.742402 10.615801 19.400301 10.30485 19.875 9.8144531 L 20.830078 10.365234 L 21.830078 8.6347656 L 20.822266 8.0527344 C 20.909821 7.7048843 21 7.3554686 21 7 C 21 6.6445314 20.909821 6.2951157 20.822266 5.9472656 L 21.830078 5.3652344 L 20.830078 3.6347656 L 19.875 4.1855469 C 19.400301 3.6951502 18.742402 3.384199 18 3.203125 L 18 2 L 16 2 z M 17 5 C 17.749999 5 18.185226 5.2452444 18.501953 5.6015625 C 18.81868 5.9578806 19 6.4722221 19 7 C 19 7.5277779 18.81868 8.0421194 18.501953 8.3984375 C 18.185226 8.7547556 17.749999 9 17 9 C 16.250001 9 15.814774 8.7547556 15.498047 8.3984375 C 15.18132 8.0421194 15 7.5277779 15 7 C 15 6.4722221 15.18132 5.9578806 15.498047 5.6015625 C 15.814774 5.2452444 16.250001 5 17 5 z M 7 10 L 7 11.201172 C 5.8893376 11.413372 4.904113 11.852257 4.2519531 12.585938 C 4.2327931 12.607487 4.2276904 12.636373 4.2089844 12.658203 L 3.3046875 12.134766 L 2.3046875 13.865234 L 3.2675781 14.421875 C 3.1102522 14.936467 3 15.466202 3 16 C 3 16.533798 3.1102519 17.063538 3.2675781 17.578125 L 2.3046875 18.134766 L 3.3046875 19.865234 L 4.2089844 19.341797 C 4.2276904 19.363637 4.2327931 19.392502 4.2519531 19.414062 C 4.9041127 20.147739 5.8893376 20.586628 7 20.798828 L 7 22 L 9 22 L 9 20.798828 C 10.110662 20.586628 11.095887 20.147744 11.748047 19.414062 C 11.767207 19.392512 11.772306 19.363637 11.791016 19.341797 L 12.695312 19.865234 L 13.695312 18.134766 L 12.732422 17.578125 C 12.889747 17.063543 13 16.533798 13 16 C 13 15.466202 12.889748 14.936462 12.732422 14.421875 L 13.695312 13.865234 L 12.695312 12.134766 L 11.791016 12.658203 C 11.772306 12.636363 11.767207 12.607487 11.748047 12.585938 C 11.095888 11.852252 10.110662 11.413372 9 11.201172 L 9 10 L 7 10 z M 8 13 C 9.0833326 13 9.7685596 13.370244 10.251953 13.914062 C 10.735347 14.457882 11 15.222222 11 16 C 11 16.777778 10.735347 17.542119 10.251953 18.085938 C 9.7685596 18.629756 9.0833326 19 8 19 C 6.9166674 19 6.2314405 18.629756 5.7480469 18.085938 C 5.2646532 17.542119 5 16.777778 5 16 C 5 15.222222 5.2646532 14.457881 5.7480469 13.914062 C 6.2314405 13.370245 6.9166674 13 8 13 z M 8 15 A 1 1 0 0 0 8 17 A 1 1 0 0 0 8 15 z"></path></svg>